<svg height="512pt" viewBox="0 -3 512 512" width="512pt" xmlns="http://www.w3.org/2000/svg"><path d="m428.699219 153.648438v-32.550782l-23.019531 23.019532-12.730469-12.730469-22.269531 22.261719-29.980469-29.972657h-56.410157v-20.519531c-3.710937 3.710938-7.507812 7.511719-12.25 12.25h-32.078124l-12.25-12.25v20.519531h-56.410157l-29.980469 29.972657-22.269531-22.261719-12.730469 12.730469-23.019531-23.019532v32.550782h-4.230469l62.25 62.25 50.480469-50.480469c3.859375 1.589843 4.140625 1.710937 7.988281 3.308593v80.390626l-29.644531 119.605468h29.644531v130.394532h33.539063l10.480469-10.480469v-119.238281h24.382812v119.238281l10.480469 10.480469h33.539063v-130.394532h29.644531l-29.644531-119.605468v-80.390626c3.847656-1.597656 4.128906-1.71875 7.988281-3.308593l50.480469 50.480469 24.460937-24.453126 37.789063-37.796874zm0 0" fill="#fff"/><path d="m200.144531 368.722656 29.644531-119.605468v-80.390626h-30v80.390626l-29.644531 119.605468h29.644531v130.394532h30v-130.394532zm0 0" fill="#e2e8ed"/><path d="m170.144531 368.722656h171.710938l-29.644531-119.605468h-112.421876zm0 0" fill="#57a4ff"/><path d="m504.5 77.84375h-32.554688l23.019532-23.019531-17.914063-17.914063-23.019531 23.023438v-32.558594h-25.332031v32.558594l-23.019531-23.023438-17.914063 17.914063 23.019531 23.019531h-32.554687v25.335938h32.554687l-23.019531 23.019531 17.914063 17.914062 23.019531-23.019531v32.554688h25.332031v-32.554688l23.019531 23.019531 17.914063-17.914062-23.019532-23.019531h32.554688zm0 0" fill="#ff3f62"/><path d="m133.769531 77.84375h-32.554687l23.019531-23.019531-17.914063-17.914063-23.019531 23.023438v-32.558594h-25.332031v32.558594l-23.019531-23.023438-17.914063 17.914063 23.019532 23.019531h-32.554688v25.335938h32.554688l-23.019532 23.019531 17.914063 17.914062 23.019531-23.019531v32.554688h25.332031v-32.554688l23.019531 23.019531 17.914063-17.914062-23.019531-23.019531h32.554687zm0 0" fill="#ff3f62"/><path d="m305.5 57v66.601562h-21.34375v-72.085937c-10.8125-6.515625-18.046875-18.363281-18.046875-31.902344 0 20.558594-16.667969 37.226563-37.230469 37.226563h-1.03125v66.757812h-21.347656v-66.597656c0-27.339844 22.160156-49.5 49.5-49.5s49.5 22.160156 49.5 49.5zm0 0" fill="#ffe477"/><path d="m284.15625 51.515625c-10.8125-6.515625-18.046875-18.363281-18.046875-31.902344 0 20.558594-16.667969 37.226563-37.230469 37.226563h-1.03125v46.347656l12.175782 12.179688h31.949218l12.183594-12.183594zm0 0" fill="#ffdaaa"/><path d="m199.789062 249.117188-29.644531 119.605468h30l29.644531-119.605468zm0 0" fill="#006df0"/><path d="m109.070312 153.648438h4.230469v-16.511719l-6.980469 6.980469-23.019531-23.019532v32.550782h-4.230469l62.25 62.25 15-15zm0 0" fill="#e2e8ed"/><g fill="#c70024"><path d="m417.765625 126.199219 23.019531-23.019531h-30l-23.019531 23.019531 17.914063 17.914062 15-15zm0 0"/><path d="m378.230469 77.84375h30v25.335938h-30zm0 0"/><path d="m440.785156 77.84375-23.019531-23.019531 2.914063-2.914063-15-15-17.914063 17.914063 23.019531 23.019531zm0 0"/><path d="m70.054688 77.84375-23.019532-23.019531 2.914063-2.914063-15-15-17.914063 17.914063 23.019532 23.019531zm0 0"/><path d="m47.035156 126.199219 23.019532-23.019531h-30l-23.019532 23.019531 17.914063 17.914062 15-15zm0 0"/><path d="m7.5 77.84375h30v25.335938h-30zm0 0"/></g><path d="m271 9.820312c-4.730469-1.503906-9.769531-2.320312-15-2.320312-27.339844 0-49.5 22.160156-49.5 49.5v66.601562h21.34375v-66.761718h1.035156c2.621094 0 5.175782-.273438 7.644532-.789063.410156-21.691406 14.761718-39.96875 34.476562-46.230469zm0 0" fill="#ffda44"/><path d="m257.84375 56.839844h1.035156c8.34375 0 16.042969-2.746094 22.25-7.378906-9.109375-6.785157-15.023437-17.617188-15.023437-29.847657 0 20.558594-16.667969 37.226563-37.226563 37.226563h-1.035156v46.347656l12.179688 12.179688h30l-12.179688-12.179688zm0 0" fill="#ff9478"/><path d="m512 70.34375h-21.949219l15.519531-15.519531-28.519531-28.519531-15.519531 15.519531v-21.945313h-40.332031v21.945313l-15.523438-15.519531-28.519531 28.519531 15.523438 15.523437h-21.949219v40.332032h21.949219l-15.523438 15.519531 28.523438 28.519531 15.519531-15.519531v21.949219h40.332031v-21.949219l15.523438 15.519531 28.519531-28.519531-15.523438-15.519531h21.949219zm-15 25.335938h-43.160156l30.519531 30.519531-7.308594 7.308593-30.519531-30.523437v43.164063h-10.332031v-43.164063l-30.523438 30.523437-7.304687-7.308593 30.519531-30.519531h-43.160156v-10.335938h43.160156l-30.519531-30.519531 7.308594-7.308594 30.519531 30.523437v-43.160156h10.332031v43.160156l30.523438-30.519531 7.304687 7.304688-30.519531 30.523437h43.160156zm0 0"/><path d="m134.84375 126.199219-15.523438-15.519531h21.949219v-40.335938h-21.949219l15.523438-15.519531-28.523438-28.519531-15.519531 15.519531v-21.945313h-40.332031v21.945313l-15.519531-15.519531-28.519531 28.519531 15.519531 15.523437h-21.949219v40.332032h21.949219l-15.519531 15.519531 28.519531 28.519531 15.519531-15.519531v21.949219h40.335938v-21.949219l15.519531 15.519531zm-59.042969-23.214844v43.164063h-10.332031v-43.164063l-30.519531 30.523437-7.308594-7.308593 30.519531-30.519531h-43.160156v-10.335938h43.160156l-30.519531-30.519531 7.308594-7.304688 30.519531 30.519531v-43.160156h10.335938v43.160156l30.519531-30.519531 7.308593 7.304688-30.523437 30.523437h43.164063v10.332032h-43.164063l30.519531 30.519531-7.308594 7.308593zm0 0"/><path d="m127.890625 150.828125 23.664063 23.664063 10.605468-10.605469-10.234375-10.238281 22.480469-22.46875h60.804688v-.078126h.136718v-9.703124l1.507813 1.507812h38.292969l1.507812-1.507812v9.703124h.132812v.078126h60.804688l22.480469 22.46875-10.234375 10.238281 10.605468 10.605469c3.652344-3.652344 20.011719-20.011719 23.664063-23.664063l-10.605469-10.609375-2.824218 2.824219-26.875-26.863281h-30.804688v-59.179688c0-31.429688-25.570312-57-57-57s-57 25.570312-57 57v59.179688h-30.804688l-26.875 26.863281-2.824218-2.820313zm148.765625-50.753906-7.792969 7.792969h-25.734375l-7.78125-7.785157v-36.207031c12.785156-1.859375 23.832032-9.148438 30.726563-19.441406 2.820312 4.21875 6.378906 7.96875 10.582031 11.078125zm-62.65625-43.074219c0-23.160156 18.839844-42 42-42s42 18.839844 42 42v59.101562h-6.210938v-31.050781l-.136718.136719v-37.910156l-3.628906-2.1875c-9.027344-5.4375-14.417969-14.964844-14.417969-25.480469h-15c0 16.394531-13.335938 29.730469-29.726563 29.730469h-8.535156v35.847656l-.132812-.136719v31.050781h-6.210938zm0 0"/><path d="m370.679688 205.292969-48.714844-48.714844c-9.011719 3.714844-6.035156 2.480469-17.253906 7.144531v77.894532h-97.421876v-77.894532c-1.761718-.730468 6.394532 2.644532-17.253906-7.144531l-48.714844 48.714844-36.945312-36.949219-10.605469 10.609375 47.550781 47.550781 50.972657-50.96875v72.667969l-31.730469 128.019531h31.730469v130.394532h44.144531l14.875-14.871094v-114.847656h9.378906v114.84375l14.875 14.875h44.144532v-130.394532h31.730468l-31.730468-128.023437v-72.667969l50.96875 50.972656 47.5625-47.554687-10.609376-10.605469zm-140.457032 286.324219h-22.933594v-115.394532h29.019532v109.308594zm74.488282 0h-22.933594l-6.089844-6.085938v-109.308594h29.023438zm-124.980469-130.394532 25.925781-104.605468h100.6875l25.925781 104.605468zm0 0"/><path d="m289 333.921875h-19.210938v-15h19.210938zm-29.210938 0h-15v-15h15zm-25 0h-15v-15h15zm0 0" fill="#fff"/></svg>