<svg height="512pt" viewBox="0 -64 512 512" width="512pt" xmlns="http://www.w3.org/2000/svg"><path d="m497 328.300781c0 22.089844-18.074219 40.164063-40.164062 40.164063h-401.671876c-22.089843 0-40.164062-18.074219-40.164062-40.164063v-273.132812c0-22.09375 18.074219-40.167969 40.164062-40.167969h401.671876c22.089843 0 40.164062 18.074219 40.164062 40.167969zm0 0" fill="#54e360"/><path d="m456.835938 15h-200.835938v353.46875h200.835938c22.089843 0 40.164062-18.074219 40.164062-40.167969v-273.132812c0-22.09375-18.074219-40.167969-40.164062-40.167969zm0 0" fill="#00ab5e"/><path d="m456.835938 0h-401.671876c-30.417968 0-55.164062 24.746094-55.164062 55.167969v273.132812c0 30.417969 24.746094 55.167969 55.164062 55.167969h401.671876c30.417968 0 55.164062-24.75 55.164062-55.167969v-273.132812c0-30.421875-24.746094-55.167969-55.164062-55.167969zm25.164062 257.066406h-25.164062c-13.878907 0-25.171876-11.289062-25.171876-25.167968v-80.332032c0-13.875 11.292969-25.167968 25.171876-25.167968h25.164062zm-241-1.757812c-28.816406-6.796875-50.335938-32.714844-50.335938-63.574219 0-30.863281 21.519532-56.777344 50.335938-63.578125zm30-127.152344c28.816406 6.800781 50.335938 32.714844 50.335938 63.578125 0 30.859375-21.519532 56.777344-50.335938 63.574219zm-241-1.757812h25.164062c13.878907 0 25.171876 11.292968 25.171876 25.167968v80.332032c0 13.878906-11.292969 25.167968-25.171876 25.167968h-25.164062zm0 201.902343v-41.234375h25.164062c30.421876 0 55.171876-24.746094 55.171876-55.167968v-80.332032c0-30.417968-24.75-55.167968-55.171876-55.167968h-25.164062v-41.230469c0-13.878907 11.289062-25.167969 25.164062-25.167969h185.835938v67.585938c-45.464844 7.214843-80.335938 46.683593-80.335938 94.148437 0 47.460937 34.871094 86.933594 80.335938 94.148437v67.582032h-185.835938c-13.875 0-25.164062-11.289063-25.164062-25.164063zm426.835938 25.164063h-185.835938v-67.582032c45.46875-7.214843 80.335938-46.6875 80.335938-94.148437 0-47.464844-34.867188-86.933594-80.335938-94.148437v-67.585938h185.835938c13.875 0 25.164062 11.289062 25.164062 25.167969v41.230469h-25.164062c-30.421876 0-55.171876 24.75-55.171876 55.167968v80.332032c0 30.421874 24.75 55.167968 55.171876 55.167968h25.164062v41.234375c0 13.875-11.289062 25.164063-25.164062 25.164063zm0 0" fill="#fff4f4"/><path d="m456.835938 0h-200.835938v383.46875h200.835938c30.417968 0 55.164062-24.75 55.164062-55.167969v-273.132812c0-30.421875-24.746094-55.167969-55.164062-55.167969zm-185.835938 128.15625c28.816406 6.800781 50.335938 32.714844 50.335938 63.578125 0 30.859375-21.519532 56.777344-50.335938 63.574219zm211 128.910156h-25.164062c-13.878907 0-25.171876-11.289062-25.171876-25.167968v-80.332032c0-13.875 11.292969-25.167968 25.171876-25.167968h25.164062zm0-160.667968h-25.164062c-30.421876 0-55.171876 24.75-55.171876 55.167968v80.332032c0 30.421874 24.75 55.167968 55.171876 55.167968h25.164062v41.234375c0 13.875-11.289062 25.164063-25.164062 25.164063h-185.835938v-67.582032c45.46875-7.214843 80.335938-46.6875 80.335938-94.148437 0-47.464844-34.867188-86.933594-80.335938-94.148437v-67.585938h185.835938c13.875 0 25.164062 11.289062 25.164062 25.167969zm0 0" fill="#d5eded"/></svg>