<?xml version="1.0" encoding="iso-8859-1"?>
<!-- Generator: Adobe Illustrator 16.0.0, SVG Export Plug-In . SVG Version: 6.00 Build 0)  -->
<!DOCTYPE svg PUBLIC "-//W3C//DTD SVG 1.1//EN" "http://www.w3.org/Graphics/SVG/1.1/DTD/svg11.dtd">
<svg version="1.1" id="Capa_1" xmlns="http://www.w3.org/2000/svg" xmlns:xlink="http://www.w3.org/1999/xlink" x="0px" y="0px"
	 width="972.873px" height="972.873px" viewBox="0 0 972.873 972.873" style="enable-background:new 0 0 972.873 972.873;"
	 xml:space="preserve">
<g>
	<g>
		<path d="M449.364,557.042c-2.372-2.372-6.218-2.372-8.59,0l-19.438,19.438c-2.372,2.372-2.372,6.219,0,8.591l26.116,26.116
			l-26.116,26.117c-2.372,2.372-2.372,6.218,0,8.59l19.438,19.439c2.372,2.372,6.218,2.372,8.59,0l26.117-26.116l26.117,26.117
			c2.373,2.372,6.219,2.372,8.59,0l19.439-19.439c2.373-2.372,2.373-6.218,0-8.59l-26.117-26.117l26.117-26.117
			c2.373-2.371,2.373-6.218,0-8.59l-19.439-19.438c-2.371-2.372-6.217-2.372-8.59,0l-26.117,26.116L449.364,557.042z"/>
		<path d="M629.105,769.548l26.117,26.117l-26.117,26.117c-2.373,2.371-2.373,6.218,0,8.59l19.439,19.438
			c2.371,2.372,6.217,2.372,8.59,0l26.117-26.116l26.115,26.116c2.373,2.372,6.219,2.372,8.592,0l19.438-19.438
			c2.373-2.373,2.373-6.219,0-8.59l-26.117-26.117l26.117-26.117c2.373-2.372,2.373-6.218,0-8.59l-19.438-19.439
			c-2.373-2.372-6.219-2.372-8.592,0l-26.115,26.117l-26.117-26.117c-2.373-2.372-6.219-2.372-8.59,0l-19.439,19.439
			C626.732,763.33,626.732,767.176,629.105,769.548z"/>
		<path d="M235.476,705.711l19.439,19.438c2.372,2.372,6.218,2.372,8.59,0l26.117-26.116l26.117,26.116
			c2.372,2.372,6.218,2.372,8.59,0l19.439-19.438c2.372-2.372,2.372-6.218,0-8.59l-26.117-26.117l26.117-26.117
			c2.372-2.372,2.372-6.218,0-8.59l-19.439-19.439c-2.372-2.372-6.218-2.372-8.59,0l-26.117,26.117l-26.117-26.117
			c-2.372-2.372-6.218-2.372-8.59,0l-19.439,19.439c-2.372,2.372-2.372,6.218,0,8.59l26.117,26.117l-26.117,26.117
			C233.104,699.493,233.104,703.339,235.476,705.711z"/>
		<circle cx="439.967" cy="374.837" r="57.998"/>
		<circle cx="439.967" cy="853.663" r="57.998"/>
		<path d="M544.521,486.437c0.957,5.439,5.164,6.973,9.395,3.422l14.945-12.533c25.58,38.088,40.004,76.772,42.908,115.168
			c2.551,33.734-3.717,67.583-18.635,100.602c-26.146,57.872-69.209,92.96-71.738,94.984c-0.354,0.267-0.699,0.551-1.033,0.854
			c-6.002,5.419-6.631,14.625-1.418,20.808c2.955,3.504,7.158,5.312,11.422,5.312c3.305-0.001,6.646-1.086,9.471-3.309
			c2.072-1.633,51.105-40.706,80.779-106.616c16.938-37.62,24.02-76.351,21.049-115.113c-3.408-44.478-20.125-88.853-49.703-132.062
			l15.395-12.912c4.23-3.549,3.455-7.958-1.734-9.849l-65.527-23.863c-5.189-1.891-8.619,0.986-7.662,6.427L544.521,486.437z"/>
		<path d="M957.873,283.44c8.283,0,15-6.716,15-15c0-8.284-6.717-15-15-15h-4.52H814.248c2.133-5.427,3.316-11.327,3.316-17.502
			c0-21.236-13.863-39.284-33.01-45.599V3.937h-30v186.402c-19.148,6.315-33.012,24.363-33.012,45.599
			c0,6.175,1.184,12.075,3.316,17.502H248.015c2.133-5.427,3.317-11.327,3.317-17.502c0-21.236-13.864-39.284-33.012-45.599V3.937
			h-30v186.402c-19.148,6.315-33.011,24.363-33.011,45.599c0,6.175,1.185,12.075,3.317,17.502H19.52H15c-8.284,0-15,6.716-15,15
			c0,8.284,6.716,15,15,15h4.52v655.497H15c-8.284,0-15,6.716-15,15s6.716,15,15,15h4.52h933.833h4.52c8.283,0,15-6.716,15-15
			s-6.717-15-15-15h-4.52V283.44H957.873z M759.172,221.185c6.084-4.308,14.918-4.251,20.943,0.135
			c6.027,4.386,8.799,12.774,6.57,19.887c-5.156,16.465-29.377,16.373-34.34-0.221c-0.492-1.64-0.717-3.344-0.701-5.048
			C751.701,230.221,754.486,224.503,759.172,221.185z M203.32,217.926c9.925,0,18.001,8.069,18.012,17.992
			c0.024,22.129-36.023,23.201-36.023,0.02C185.309,226.006,193.389,217.926,203.32,217.926z M923.354,938.937H49.52V283.44h873.833
			V938.937L923.354,938.937z"/>
	</g>
</g>
<g>
</g>
<g>
</g>
<g>
</g>
<g>
</g>
<g>
</g>
<g>
</g>
<g>
</g>
<g>
</g>
<g>
</g>
<g>
</g>
<g>
</g>
<g>
</g>
<g>
</g>
<g>
</g>
<g>
</g>
</svg>
