<?xml version="1.0" encoding="iso-8859-1"?>
<!-- Generator: Adobe Illustrator 16.0.0, SVG Export Plug-In . SVG Version: 6.00 Build 0)  -->
<!DOCTYPE svg PUBLIC "-//W3C//DTD SVG 1.1//EN" "http://www.w3.org/Graphics/SVG/1.1/DTD/svg11.dtd">
<svg version="1.1" id="Capa_1" xmlns="http://www.w3.org/2000/svg" xmlns:xlink="http://www.w3.org/1999/xlink" x="0px" y="0px"
	 width="898.347px" height="898.347px" viewBox="0 0 898.347 898.347" style="enable-background:new 0 0 898.347 898.347;"
	 xml:space="preserve">
<g>
	<g>
		<path d="M445.623,154.546c0.1,0.1,0.3,0.2,0.399,0.3c10.6-6.4,26.401-16,33.2-21c6.801-5,13.4-10.1,19.701-15.4
			c-16.4,5.8-34.701,9-54.201,9c-16.5,0-32.2-2.3-46.6-6.6C412.623,132.846,428.522,144.146,445.623,154.546z"/>
		<path d="M835.324,461.246v-278c0-93.4-75.701-169.1-169.102-169.1h-64.898c4.398,10.2,7.6,20.6,10.199,31.1h45.9
			c41.1,0,78.799,16.3,106.299,46c26.701,28.9,41.5,67.8,41.5,109.6c0,8.3-6.699,15-15,15c-8.299,0-15-6.7-15-15
			c0-34.2-11.898-65.9-33.5-89.3c-21.699-23.5-51.6-36.4-84.299-36.4h-39.701c0.301,1.4,6.701,37,11.9,52.3c0.801,2.3,1.1,4.7,1,7.1
			c0.201,5.1-1.299,9.9-4.5,13.6c-3.5,4.1-8.6,6.4-14.299,6.4c-2.4,0-4.9-0.4-7.4-1.2l-31-10c-0.1,0-0.201,0-0.4,0
			c-1.6,0-3.301,0.7-3.801,1c-29.699,24.3-91.799,60.2-92.1,60.4c0,0.4-0.1,123.2-0.1,123.2c0,14.5-11.4,26.3-25.4,26.3h-8.6
			c-14,0-25.399-11.8-25.399-26.3v-122.9c-22.9-12.4-60.7-34.3-93-60.7c-0.5-0.4-2.2-1-3.8-1c-0.2,0-0.3,0-0.4,0l-31,10
			c-2.5,0.8-5,1.2-7.399,1.2c-6.5,0-12.2-2.9-15.601-8.1c-2.2-3.3-5.3-10.2-1.3-20.2c0,0,8.2-31.7,11-47c0.2-1.4,0.5-2.7,0.7-4.1
			h-34.7c-32.5,0-62.2,12.9-83.6,36.3c-21.3,23.3-33,55-33,89.3c0,8.3-6.7,15-15,15s-15-6.7-15-15c0-41.9,14.5-80.8,40.8-109.6
			c27.2-29.7,64.7-46.1,105.8-46.1h40.9c2.6-10.5,5.8-20.9,10.199-31.1h-61.1c-93.4,0-169.1,75.7-169.1,169.1v278
			c0,5.5,4.5,10,10,10l115.9,0.101V256.246c0-5.8,4.7-10.5,10.5-10.5c5.8,0,10.5,4.7,10.5,10.5l-0.1,631.701
			c0,10.2,2.3,10.4,10,10.4h459.8c5.5,0,10-4.5,10-10l0.1-632.001c0-5.9,4.801-10.8,10.801-10.8s10.801,4.8,10.801,10.8v215.101
			l114.1-0.2C830.824,471.246,835.324,466.746,835.324,461.246z M611.824,292.746c0,26.3-21.301,51.3-47.602,51.3
			c-26.299,0-47.6-25-47.6-51.3v-26.5c0-5.5,4.5-10,10-10h75.301c5.5,0,10,4.5,10,10v26.5H611.824z"/>
		<path d="M324.223,14.146c0.7-4,3.7-10.8-0.899-13.4c-7-4-11.5,9.2-13.601,13.4c-4.899,10-23.899,96.7-29.2,113.9l-1.6,3.9
			c-1.9,4.7-0.5,7.7,3,7.7c0.8,0,1.7-0.2,2.8-0.5l31.101-10.1c1.5-0.5,3.1-0.7,4.899-0.7c4.7,0,9.9,1.7,13.3,4.4
			c28.301,23.1,60.801,42.7,83.601,55.3c0.6-9.8,5.3-18,14-24.4c-24-15.2-46.8-32.6-67.101-52.5c-12-11.7-25.1-23.9-33.899-38.6
			c-9.8-16.4-10.8-33-7.7-51.4C323.423,18.746,323.823,16.446,324.223,14.146z"/>
		<path d="M530.423,110.346c-13.201,12.9-27.5,24.7-42.301,35.6c-6.699,4.9-36,22.8-37.9,23.9c-2.799,1.7-7.399,4.4-7.599,4.6
			c-7.101,4.5-9.9,9.5-9.9,15.8v5.9v8.4v8.3v115.2c0,6.3,4.601,11.3,10.4,11.3h8.599c5.701,0,10.4-5.101,10.4-11.3v-121
			c0-7.5,1.701-11.9,9.301-16.3c22.6-13,58.1-33.2,88.4-57.9c3.398-2.7,8.6-4.4,13.299-4.4c1.701,0,3.4,0.2,4.9,0.7l31.1,10.1
			c1,0.3,1.9,0.5,2.801,0.5c2.799,0,4.199-1.9,3.799-5c0.102-0.7-25.799-110.4-30.699-120.4c-1.801-3.6-4.199-10.6-7.6-13
			c-1.9-1.3-4.5-1.5-6.4-0.2c-3.801,2.6-1,9.7-0.4,13.2c3.4,19,5.1,37.6-4.799,55.1C556.824,84.646,543.023,98.046,530.423,110.346z
			"/>
	</g>
</g>
<g>
</g>
<g>
</g>
<g>
</g>
<g>
</g>
<g>
</g>
<g>
</g>
<g>
</g>
<g>
</g>
<g>
</g>
<g>
</g>
<g>
</g>
<g>
</g>
<g>
</g>
<g>
</g>
<g>
</g>
</svg>
