<svg height="486pt" viewBox="0 -9 486.4 486" width="486pt" xmlns="http://www.w3.org/2000/svg"><path d="m243.199219 164.941406c-41.171875 0-74.546875-33.375-74.546875-74.546875v-86.195312h149.09375v86.195312c0 41.171875-33.375 74.546875-74.546875 74.546875zm0 0" fill="#ffea92"/><path d="m243.199219 164.941406c-41.171875 0-74.546875-33.375-74.546875-74.546875v-86.195312h149.09375v86.195312c0 41.171875-33.375 74.546875-74.546875 74.546875zm0 0" fill="#ffea92"/><path d="m287.460938 235.023438h-88.523438c-1.285156 0-2.328125-1.042969-2.328125-2.328126 0-11.582031 9.382813-20.96875 20.964844-20.96875h51.25c11.582031 0 20.96875 9.386719 20.96875 20.96875 0 1.285157-1.042969 2.328126-2.332031 2.328126zm0 0" fill="#ffea92"/><path d="m258.535156 211.726562v-48.371093c-4.949218 1.035156-10.078125 1.585937-15.335937 1.585937-5.257813 0-10.386719-.550781-15.335938-1.585937v48.371093zm0 0" fill="#ffea92"/><path d="m247.320312 34.640625h-17.457031c-3.308593 0-6 2.695313-6 6v6.730469c0 3.308594 2.691407 6 6 6h3.59375v58.476562c0 3.304688 2.691407 6 6 6h7.863281c3.308594 0 6-2.695312 6-6v-71.207031c0-3.304687-2.691406-6-6-6zm0 0" fill="#f9a7a7"/><path d="m451.199219 338.585938h-73.199219v-42c0-5.523438-4.476562-10-10-10h-114.800781v-35.761719c0-5.519531-4.476563-10-10-10-5.523438 0-10 4.480469-10 10v35.761719h-114.800781c-5.523438 0-10 4.476562-10 10v42h-73.199219c-5.523438 0-10 4.476562-10 10v52c0 5.523437 4.476562 10 10 10 5.523437 0 10-4.476563 10-10v-42h146.402343v42c0 5.523437 4.472657 10 10 10 5.523438 0 10-4.476563 10-10v-52c0-5.523438-4.476562-10-10-10h-73.203124v-32h229.601562v32h-73.199219c-5.523437 0-10 4.476562-10 10v52c0 5.523437 4.476563 10 10 10 5.523438 0 10-4.476563 10-10v-42h146.398438v42c0 5.523437 4.476562 10 10 10 5.523437 0 10-4.476563 10-10v-52c0-5.523438-4.476563-10-10-10zm0 0" fill="#6bdddd"/><path d="m168.652344 90.394531v-1.554687c-6.007813-2.621094-11.914063-6.660156-17.101563-11.851563-7.964843-7.960937-13.375-17.867187-14.855469-27.175781-.691406-4.378906-1.078124-12.507812 4.148438-17.734375 3.757812-3.757813 9.039062-4.546875 12.8125-4.546875 4.816406 0 9.941406 1.203125 14.992188 3.410156v-17.027344c-14.941407-4.609374-29.667969-2.601562-39.121094 6.851563-15.691406 15.695313-10.898438 45.933594 10.707031 67.539063 9.097656 9.09375 19.722656 15.199218 30.148437 18.0625-1.121093-5.148438-1.730468-10.488282-1.730468-15.972657zm0 0" fill="#ffea92"/><path d="m356.871094 20.769531c-9.453125-9.453125-24.183594-11.464843-39.125-6.855469v17.027344c5.054687-2.203125 10.179687-3.40625 14.996094-3.40625 3.773437 0 9.054687.789063 12.8125 4.546875 5.226562 5.222657 4.839843 13.351563 4.148437 17.730469-1.476563 9.3125-6.890625 19.21875-14.855469 27.179688-5.1875 5.1875-11.09375 9.226562-17.101562 11.847656v1.554687c0 5.484375-.609375 10.824219-1.734375 15.972657 10.425781-2.859376 21.050781-8.964844 30.148437-18.0625 21.609375-21.605469 26.402344-51.84375 10.710938-67.535157zm0 0" fill="#ffea92"/><g fill="#3762cc"><path d="m243.199219 168.945312c-43.308594 0-78.546875-35.238281-78.546875-78.550781v-86.195312c0-2.207031 1.792968-4 4-4h149.09375c2.210937 0 4 1.792969 4 4v86.195312c0 43.3125-35.234375 78.550781-78.546875 78.550781zm-70.546875-160.746093v82.195312c0 38.902344 31.648437 70.550781 70.546875 70.550781 38.902343 0 70.546875-31.648437 70.546875-70.550781v-82.195312zm0 0"/><path d="m287.460938 239.027344h-88.523438c-3.488281 0-6.328125-2.839844-6.328125-6.332032 0-13.765624 11.199219-24.964843 24.964844-24.964843h51.25c13.769531 0 24.964843 11.199219 24.964843 24.964843.003907 3.492188-2.835937 6.332032-6.328124 6.332032zm-86.769532-8h85.019532c-.84375-8.574219-8.09375-15.296875-16.886719-15.296875h-51.25c-8.789063 0-16.042969 6.71875-16.882813 15.296875zm0 0"/><path d="m258.535156 215.730469h-30.671875c-2.207031 0-4-1.792969-4-4v-48.375c0-1.203125.542969-2.34375 1.480469-3.101563.933594-.761718 2.167969-1.054687 3.339844-.8125 9.53125 1.992188 19.503906 1.992188 29.035156 0 1.175781-.242187 2.40625.050782 3.339844.8125.933594.757813 1.476562 1.898438 1.476562 3.101563v48.375c0 2.207031-1.792968 4-4 4zm-26.671875-8h22.671875v-39.605469c-7.507812 1.089844-15.164062 1.089844-22.671875 0zm0 0"/><path d="m243.199219 168.945312c-43.308594 0-78.546875-35.238281-78.546875-78.550781v-86.195312c0-2.207031 1.792968-4 4-4h149.09375c2.210937 0 4 1.792969 4 4v86.195312c0 43.3125-35.234375 78.550781-78.546875 78.550781zm-70.546875-160.746093v82.195312c0 38.902344 31.648437 70.550781 70.546875 70.550781 38.902343 0 70.546875-31.648437 70.546875-70.550781v-82.195312zm0 0"/><path d="m243.199219 168.945312c-43.308594 0-78.546875-35.238281-78.546875-78.550781v-86.195312c0-2.207031 1.792968-4 4-4h149.09375c2.210937 0 4 1.792969 4 4v86.195312c0 43.3125-35.234375 78.550781-78.546875 78.550781zm-70.546875-160.746093v82.195312c0 38.902344 31.648437 70.550781 70.546875 70.550781 38.902343 0 70.546875-31.648437 70.546875-70.550781v-82.195312zm0 0"/><path d="m170.386719 110.367188c-.355469 0-.707031-.046876-1.058594-.140626-11.566406-3.175781-22.605469-9.777343-31.917969-19.09375-11.042968-11.039062-18.308594-24.601562-20.460937-38.1875-2.230469-14.054687 1.234375-26.484374 9.753906-35.003906 10.125-10.125 26.246094-13.058594 43.132813-7.847656 1.675781.519531 2.816406 2.066406 2.816406 3.820312v17.027344c0 1.351563-.679688 2.609375-1.804688 3.347656-1.132812.738282-2.554687.859376-3.792968.320313-4.613282-2.011719-9.242188-3.074219-13.394532-3.074219-3.015625 0-7.195312.585938-9.984375 3.375-3.96875 3.96875-3.601562 10.648438-3.027343 14.28125 1.347656 8.492188 6.355468 17.59375 13.730468 24.972656 4.738282 4.738282 10.226563 8.546876 15.875 11.011719 1.457032.632813 2.398438 2.074219 2.398438 3.664063v1.554687c0 5.046875.554687 10.132813 1.640625 15.121094.300781 1.367187-.140625 2.792969-1.15625 3.753906-.75.714844-1.742188 1.097657-2.75 1.097657zm-16.644531-94.808594c-8.554688 0-16.097657 2.75-21.382813 8.039062-6.660156 6.660156-9.328125 16.636719-7.511719 28.097656 1.890625 11.925782 8.363282 23.925782 18.21875 33.78125 6.648438 6.652344 14.242188 11.746094 22.234375 14.960938-.386719-3.011719-.601562-6.035156-.640625-9.046875-5.699218-2.832031-11.164062-6.792969-15.9375-11.570313-8.542968-8.542968-14.367187-19.25-15.976562-29.375-.808594-5.136718-1.207032-14.714843 5.273437-21.1875 4.722657-4.730468 11.113281-5.722656 15.640625-5.722656 3.5625 0 7.242188.566406 10.992188 1.683594v-8.261719c-3.75-.9375-7.414063-1.398437-10.910156-1.398437zm0 0"/><path d="m316.015625 110.367188c-1.011719 0-2-.382813-2.753906-1.097657-1.015625-.960937-1.457031-2.386719-1.15625-3.753906 1.089843-4.988281 1.640625-10.074219 1.640625-15.121094v-1.554687c0-1.589844.945312-3.03125 2.398437-3.664063 5.644531-2.464843 11.132813-6.273437 15.875-11.011719 7.378907-7.378906 12.382813-16.480468 13.730469-24.976562.574219-3.628906.945312-10.308594-3.023438-14.277344-2.792968-2.789062-6.96875-3.375-9.988281-3.375-4.148437 0-8.78125 1.0625-13.390625 3.074219-1.234375.539063-2.660156.417969-3.792968-.320313-1.128907-.742187-1.808594-2-1.808594-3.347656v-17.027344c0-1.753906 1.144531-3.300781 2.820312-3.820312 16.886719-5.210938 33.007813-2.277344 43.128906 7.847656 8.519532 8.519532 11.984376 20.949219 9.757813 35.003906-2.152344 13.585938-9.421875 27.148438-20.464844 38.1875-9.308593 9.316407-20.347656 15.917969-31.917969 19.09375-.347656.09375-.703124.140626-1.054687.140626zm5.726563-18.980469c-.039063 3.015625-.253907 6.039062-.640626 9.046875 7.992188-3.214844 15.585938-8.308594 22.234376-14.957032 9.859374-9.859374 16.328124-21.855468 18.21875-33.785156 1.816406-11.457031-.851563-21.433594-7.511719-28.097656-7.449219-7.449219-19.363281-9.855469-32.296875-6.644531v8.265625c3.753906-1.121094 7.433594-1.683594 10.996094-1.683594 4.527343 0 10.917968.992188 15.644531 5.71875 6.472656 6.476562 6.078125 16.050781 5.265625 21.1875-1.605469 10.125-7.429688 20.835938-15.972656 29.378906-4.777344 4.78125-10.246094 8.742188-15.9375 11.570313zm0 0"/><path d="m451.199219 414.585938c-7.71875 0-14-6.28125-14-14v-38h-138.398438v38c0 7.71875-6.28125 14-14 14s-14-6.28125-14-14v-52c0-7.71875 6.28125-14 14-14h69.199219v-24h-221.601562v24h69.203124c7.714844 0 14 6.28125 14 14v52c0 7.71875-6.285156 14-14 14-7.71875 0-14-6.28125-14-14v-38h-138.402343v38c0 7.71875-6.28125 14-14 14s-14-6.28125-14-14v-52c0-7.71875 6.28125-14 14-14h69.199219v-38c0-7.71875 6.285156-14 14-14h110.800781v-31.761719c0-7.71875 6.28125-14 14-14s14 6.28125 14 14v31.761719h110.800781c7.71875 0 14 6.28125 14 14v38h69.199219c7.71875 0 14 6.28125 14 14v52c0 7.71875-6.28125 14-14 14zm-156.398438-60h146.398438c2.207031 0 4 1.792968 4 4v42c0 3.308593 2.691406 6 6 6 3.308593 0 6-2.691407 6-6v-52c0-3.308594-2.691407-6-6-6h-73.199219c-2.207031 0-4-1.792969-4-4v-42c0-3.308594-2.691406-6-6-6h-114.800781c-2.207031 0-4-1.792969-4-4v-35.761719c0-3.304688-2.691407-6-6-6-3.308594 0-6 2.695312-6 6v35.761719c0 2.207031-1.792969 4-4 4h-114.800781c-3.304688 0-6 2.691406-6 6v42c0 2.207031-1.789063 4-4 4h-73.199219c-3.308594 0-6 2.691406-6 6v52c0 3.308593 2.691406 6 6 6 3.308593 0 6-2.691407 6-6v-42c0-2.207032 1.792969-4 4-4h146.402343c2.207032 0 4 1.792968 4 4v42c0 3.308593 2.691407 6 6 6 3.304688 0 6-2.691407 6-6v-52c0-3.308594-2.695312-6-6-6h-73.203124c-2.207032 0-4-1.792969-4-4v-32c0-2.207032 1.792968-4 4-4h229.601562c2.207031 0 4 1.792968 4 4v32c0 2.207031-1.792969 4-4 4h-73.199219c-3.308593 0-6 2.691406-6 6v52c0 3.308593 2.691407 6 6 6 3.308594 0 6-2.691407 6-6v-42c0-2.210938 1.789063-4 4-4zm0 0"/></g><path d="m316 433.074219c0 17.234375-13.96875 31.203125-31.199219 31.203125s-31.199219-13.96875-31.199219-31.203125c0-17.230469 13.96875-31.199219 31.199219-31.199219s31.199219 13.96875 31.199219 31.199219zm0 0" fill="#f9a7a7"/><path d="m482.398438 433.074219c0 17.234375-13.96875 31.203125-31.199219 31.203125s-31.199219-13.96875-31.199219-31.203125c0-17.230469 13.96875-31.199219 31.199219-31.199219s31.199219 13.96875 31.199219 31.199219zm0 0" fill="#b9befc"/><path d="m66.398438 433.074219c0 17.234375-13.96875 31.203125-31.199219 31.203125s-31.199219-13.96875-31.199219-31.203125c0-17.230469 13.96875-31.199219 31.199219-31.199219s31.199219 13.96875 31.199219 31.199219zm0 0" fill="#e0ebfc"/><path d="m232.800781 433.074219c0 17.234375-13.96875 31.203125-31.199219 31.203125-17.234374 0-31.203124-13.96875-31.203124-31.203125 0-17.230469 13.96875-31.199219 31.203124-31.199219 17.230469 0 31.199219 13.96875 31.199219 31.199219zm0 0" fill="#a4c9ff"/><path d="m284.800781 468.277344c-19.410156 0-35.199219-15.792969-35.199219-35.203125 0-19.40625 15.789063-35.199219 35.199219-35.199219 19.410157 0 35.203125 15.792969 35.203125 35.199219 0 19.410156-15.792968 35.203125-35.203125 35.203125zm0-62.402344c-15 0-27.199219 12.203125-27.199219 27.199219 0 15 12.199219 27.203125 27.199219 27.203125 14.996094 0 27.203125-12.203125 27.203125-27.203125 0-14.996094-12.207031-27.199219-27.203125-27.199219zm0 0" fill="#3762cc"/><path d="m451.199219 468.277344c-19.40625 0-35.199219-15.792969-35.199219-35.203125 0-19.40625 15.792969-35.199219 35.199219-35.199219 19.410156 0 35.199219 15.792969 35.199219 35.199219 0 19.410156-15.789063 35.203125-35.199219 35.203125zm0-62.402344c-14.996094 0-27.199219 12.203125-27.199219 27.199219 0 15 12.203125 27.203125 27.199219 27.203125 15 0 27.199219-12.203125 27.199219-27.203125 0-14.996094-12.199219-27.199219-27.199219-27.199219zm0 0" fill="#3762cc"/><path d="m35.199219 468.277344c-19.40625 0-35.199219-15.792969-35.199219-35.203125 0-19.40625 15.792969-35.199219 35.199219-35.199219 19.410156 0 35.199219 15.792969 35.199219 35.199219 0 19.410156-15.789063 35.203125-35.199219 35.203125zm0-62.402344c-14.996094 0-27.199219 12.203125-27.199219 27.199219 0 15 12.203125 27.203125 27.199219 27.203125 15 0 27.199219-12.203125 27.199219-27.203125 0-14.996094-12.199219-27.199219-27.199219-27.199219zm0 0" fill="#3762cc"/><path d="m201.601562 468.277344c-19.410156 0-35.203124-15.792969-35.203124-35.203125 0-19.40625 15.792968-35.199219 35.203124-35.199219 19.40625 0 35.199219 15.792969 35.199219 35.199219 0 19.410156-15.792969 35.203125-35.199219 35.203125zm0-62.402344c-15 0-27.203124 12.203125-27.203124 27.199219 0 15 12.203124 27.203125 27.203124 27.203125 14.996094 0 27.199219-12.203125 27.199219-27.203125 0-14.996094-12.203125-27.199219-27.199219-27.199219zm0 0" fill="#3762cc"/></svg>