<svg version="1.1" xmlns="http://www.w3.org/2000/svg">
  <g stroke="none" stroke-width="1">
    <g transform="translate(-251.000000, -54.000000)">
      <path
        id="Combined-Shape"
        d="M253,58 C251.895431,58 251,57.1045695 251,56 C251,54.8954305 251.895431,54 253,54 C254.104569,54 255,54.8954305 255,56 C255,57.1045695 254.104569,58 253,58 Z M261,58 C259.895431,58 259,57.1045695 259,56 C259,54.8954305 259.895431,54 261,54 C262.104569,54 263,54.8954305 263,56 C263,57.1045695 262.104569,58 261,58 Z M269,58 C267.895431,58 267,57.1045695 267,56 C267,54.8954305 267.895431,54 269,54 C270.104569,54 271,54.8954305 271,56 C271,57.1045695 270.104569,58 269,58 Z"
        ></path>
      </g>
    </g>
  </svg>
