<svg  version="1.1" xmlns="http://www.w3.org/2000/svg" xmlns:xlink="http://www.w3.org/1999/xlink">
    <defs></defs>
    <g id="Фильтр-и-навигация" stroke="none" stroke-width="1" fill="none" fill-rule="evenodd">
        <g id="Экспорт" class="fill" transform="translate(-45.000000, -147.000000)" >
            <g id="Group-4" transform="translate(45.000000, 147.000000)">
                <path d="M4.08611599,18.9744573 L5.16981261,17.1908733 L6.14513956,17.1908733 L4.54668705,19.6066137 L6.19480899,22.0765389 L5.22851284,22.0765389 L4.0996622,20.2478009 L2.97081155,22.0765389 L2,22.0765389 L3.64812194,19.6066137 L2.04966943,17.1908733 L3.01596558,17.1908733 L4.08611599,18.9744573 Z M8.3125328,21.9356584 L7.47718332,21.9356584 L7.47718332,15 L8.3125328,15 L8.3125328,21.9356584 Z M12.6428039,20.8709264 C12.6428039,20.6451552 12.5577646,20.4698088 12.3876836,20.344882 C12.2176026,20.2199553 11.9210941,20.1123392 11.4981493,20.0220307 C11.0752045,19.9317222 10.7395629,19.8233537 10.4912145,19.6969218 C10.2428662,19.5704899 10.0592416,19.4199779 9.94033542,19.2453815 C9.82142923,19.0707851 9.76197702,18.8630786 9.76197702,18.6222559 C9.76197702,18.2218882 9.93130292,17.8832364 10.2699598,17.6062904 C10.6086167,17.3293443 11.0413384,17.1908733 11.5681381,17.1908733 C12.1220302,17.1908733 12.5713083,17.3338596 12.9159857,17.6198366 C13.2606632,17.9058135 13.4329993,18.2715574 13.4329993,18.7170794 L12.5931344,18.7170794 C12.5931344,18.4882979 12.4960543,18.2911272 12.301891,18.1255617 C12.1077277,17.9599961 11.8631458,17.8772145 11.5681381,17.8772145 C11.2640994,17.8772145 11.0262906,17.9434398 10.8547044,18.0758922 C10.6831183,18.2083447 10.5973265,18.3814334 10.5973265,18.5951635 C10.5973265,18.7968525 10.6770978,18.9488696 10.8366428,19.0512192 C10.9961879,19.1535688 11.2844182,19.2514016 11.7013424,19.3447204 C12.1182667,19.4380391 12.4561659,19.549418 12.7150503,19.6788601 C12.9739347,19.8083023 13.1658374,19.9640822 13.2907641,20.1462043 C13.4156909,20.3283265 13.4781533,20.5503315 13.4781533,20.8122262 C13.4781533,21.2487173 13.3035595,21.5986575 12.9543666,21.8620573 C12.6051738,22.1254571 12.1521329,22.257155 11.5952305,22.257155 C11.2038936,22.257155 10.8577162,22.1879195 10.5566879,22.0494465 C10.2556595,21.9109735 10.0201084,21.7175656 9.85002737,21.4692173 C9.67994636,21.2208689 9.59490713,20.9522051 9.59490713,20.6632179 L10.4302566,20.6632179 C10.445308,20.9431743 10.5574394,21.1651793 10.7666541,21.3292398 C10.9758688,21.4933002 11.2520582,21.5753292 11.5952305,21.5753292 C11.9113102,21.5753292 12.1649228,21.5113617 12.3560758,21.3834246 C12.5472288,21.2554876 12.6428039,21.0846565 12.6428039,20.8709264 Z" id="xls-copy-2"></path>
                <rect id="Rectangle-Copy-30" x="1" y="5" width="3" height="1"></rect>
                <rect id="Rectangle-Copy-31" x="7" y="5" width="3" height="1"></rect>
                <rect id="Rectangle-Copy-33" x="11" y="6" width="1" height="1"></rect>
                <rect id="Rectangle-Copy-35" opacity="0.5" x="11" y="5" width="1" height="1"></rect>
                <rect id="Rectangle-Copy-36" opacity="0.5" x="12" y="6" width="1" height="1"></rect>
                <g id="Group" transform="translate(5.500000, 5.000000) scale(1, -1) translate(-5.500000, -5.000000) translate(3.000000, 0.000000)">
                    <path d="M3,8 L4,8 L4,9 L3,9 L3,10 L2,10 L2,9 L1,9 L1,8 L2,8 L2,0 L3,0 L3,8 Z M0,7 L1,7 L1,8 L0,8 L0,7 Z M4,7 L5,7 L5,8 L4,8 L4,7 Z" id="Combined-Shape"></path>
                    <rect id="Rectangle-Copy-37" opacity="0.5" x="3" y="7" width="1" height="1"></rect>
                    <rect id="Rectangle-Copy-38" opacity="0.5" x="1" y="7" width="1" height="1"></rect>
                </g>
                <rect id="Rectangle-Copy-39" opacity="0.5" x="13" y="7" width="1" height="1"></rect>
                <rect id="Rectangle-Copy-40" opacity="0.5" x="14" y="8" width="1" height="1"></rect>
                <rect id="Rectangle-Copy-41" opacity="0.5" x="15" y="9" width="1" height="1"></rect>
                <rect id="Rectangle-Copy-42" x="12" y="7" width="1" height="1"></rect>
                <rect id="Rectangle-Copy-43" x="13" y="8" width="1" height="1"></rect>
                <rect id="Rectangle-Copy-44" x="14" y="9" width="1" height="1"></rect>
                <rect id="Rectangle-Copy-45" x="11" y="10" width="5" height="1"></rect>
                <rect id="Rectangle-Copy-46" x="1" y="24" width="14" height="1"></rect>
                <rect id="Rectangle-Copy-47" x="0" y="6" width="1" height="18"></rect>
                <rect id="Rectangle-Copy-48" x="15" y="10" width="1" height="14"></rect>
                <rect id="Rectangle-Copy-49" x="10" y="5" width="1" height="5"></rect>
            </g>
        </g>
    </g>
</svg>