<svg xmlns="http://www.w3.org/2000/svg" >
    <g fill-rule="evenodd">
        <path d="M4.086 14.974l1.084-1.783h.975l-1.598 2.416 1.648 2.47h-.966l-1.13-1.83-1.128 1.83H2l1.648-2.47L2.05 13.19h.966l1.07 1.783zm4.227 2.962h-.836V11h.836v6.936zm4.33-1.065a.615.615 0 0 0-.255-.526c-.17-.125-.467-.233-.89-.323s-.758-.199-1.007-.325c-.248-.127-.432-.277-.55-.452a1.08 1.08 0 0 1-.179-.623c0-.4.17-.739.508-1.016.339-.277.771-.415 1.298-.415.554 0 1.003.143 1.348.429.345.286.517.652.517 1.097h-.84c0-.229-.097-.426-.291-.591-.194-.166-.439-.249-.734-.249-.304 0-.542.066-.713.199a.625.625 0 0 0-.258.52c0 .2.08.353.24.455.16.103.447.2.864.294.417.093.755.204 1.014.334.259.13.45.285.576.467.125.182.187.404.187.666 0 .437-.174.787-.524 1.05-.349.263-.802.395-1.359.395a2.46 2.46 0 0 1-1.038-.208 1.69 1.69 0 0 1-.707-.58 1.398 1.398 0 0 1-.255-.806h.835c.015.28.127.502.337.666.209.164.485.246.828.246.316 0 .57-.064.761-.192a.59.59 0 0 0 .287-.512zM5 0h1v10H5z"/>
        <path d="M4 8h3v1H4zM3 7h1v1H3zM7 7h1v1H7zM1 1h3v1H1zM7 1h3v1H7zM11 2h1v1h-1z"/>
        <path d="M11 1h1v1h-1zM12 2h1v1h-1zM6 7h1v1H6zM4 7h1v1H4zM13 3h1v1h-1zM14 4h1v1h-1zM15 5h1v1h-1z" opacity=".5"/>
        <path d="M12 3h1v1h-1zM13 4h1v1h-1zM14 5h1v1h-1zM11 6h5v1h-5zM1 20h14v1H1zM0 2h1v18H0z"/>
        <path d="M15 6h1v14h-1zM10 1h1v5h-1z"/>
    </g>
</svg>
