<svg xmlns="http://www.w3.org/2000/svg" >
    <g fill-rule="evenodd">
        <path d="M19.393 8.63l.342-.345-.347-.34-3.713-3.647-.678.69 3.713 3.647-.005-.686-3.67 3.706.687.68z"/>
        <path d="M18.186 8.723h.484v-.968H7.998v.968h.484z"/>
        <path d="M12.483 1.523a9.58 9.58 0 0 0-.997-.565C10.432.441 9.329.13 8.225.13c-1.851 0-3.86.695-5.387 1.956C1.037 3.573.004 5.725.004 8.401c0 4.747 3.701 8.238 8.22 8.238 1.16 0 2.275-.302 3.309-.805.36-.175.685-.362.97-.55a5.18 5.18 0 0 0 .37-.264l-.607-.754a5.492 5.492 0 0 1-.296.21c-.25.165-.54.332-.86.488-.912.443-1.888.707-2.885.707-3.998 0-7.253-3.07-7.253-7.27 0-2.384.902-4.264 2.483-5.57 1.35-1.115 3.14-1.734 4.77-1.734.938 0 1.903.273 2.835.73a8.618 8.618 0 0 1 1.137.672c.04.028.065.047.076.056l.593-.765a6.013 6.013 0 0 0-.383-.267z"/>
    </g>
</svg>
