<svg xmlns="http://www.w3.org/2000/svg" viewBox="0 0 16 16">
    <path class="stroke" fill="none" fill-rule="evenodd" stroke-width="1.5" d="M11.771 11.771A5.317 5.317 0 0 1 8 13.333V16v-3.333.666a5.315 5.315 0 0 1-3.64-1.436L2.47 13.785l1.888-1.888A5.319 5.319 0 0 1 2.667 8H0h3.333-.666c0-1.473.597-2.806 1.562-3.771L2.47 2.47 4.23 4.23A5.317 5.317 0 0 1 8 2.667v.666V0v2.667c1.538 0 2.924.65 3.897 1.692l1.888-1.888-1.888 1.888A5.315 5.315 0 0 1 13.333 8h-.666H16h-2.667a5.317 5.317 0 0 1-1.562 3.771l2.014 2.014-2.014-2.014z"/>
</svg>
